####
#
# OBJ File Generated by Meshlab
#
####
# Object arvore3.obj
#
# Vertices: 90
# Faces: 172
#
####
mtllib ./arvore3.obj.mtl

vn 0.098319 0.994206 0.043458
v -8.639101 121.386200 23.335201
vn 0.525106 0.716764 0.458817
v 21.355299 106.344604 35.481400
vn 0.588835 0.801416 0.104908
v 37.860100 103.178604 16.642200
vn 0.251239 0.868472 -0.427358
v 33.316902 106.604599 -12.442800
vn 0.226890 0.909458 -0.348436
v 14.266899 108.376602 -15.834800
vn -0.035205 0.994106 -0.102533
v -13.815901 119.889603 1.104000
vn 0.887601 0.361501 -0.285448
v 52.784500 92.150803 -34.125801
vn 0.569401 0.390223 -0.723539
v 51.012501 73.709396 -47.273201
vn 0.449157 0.421308 -0.787882
v 36.558502 69.858994 -53.039398
vn 0.193703 0.768152 -0.610264
v 18.117298 88.908997 -42.730202
vn 0.453485 -0.195902 -0.869468
v 28.531700 41.776398 -62.504601
vn -0.018143 0.151653 -0.988267
v 6.300699 46.953003 -67.586800
vn -0.255819 0.497994 -0.828588
v -14.757500 76.947403 -59.657001
vn 0.116939 0.747074 -0.654375
v -10.967501 93.452194 -47.358200
vn -0.781353 0.138049 -0.608630
v -47.363899 73.870407 -43.433800
vn -0.806366 0.350132 -0.476636
v -59.331497 81.214401 -23.749800
vn -0.561359 0.808043 -0.178726
v -49.714100 109.095200 -16.732201
vn -0.097983 0.879517 -0.465671
v -32.793499 114.824799 -22.675200
vn -0.780433 0.489953 0.388420
v -45.171101 107.121002 12.352800
vn -0.168025 0.887127 0.429852
v -25.705101 119.373596 28.640800
vn -0.855203 0.256269 0.450503
v -52.883301 70.476196 23.310600
vn -0.772568 0.309739 0.554257
v -44.873501 69.639206 39.597401
vn -0.366661 0.343325 0.864689
v -25.693699 94.493607 52.459000
vn -0.376514 0.515849 0.769504
v -10.806700 109.686600 51.018200
vn -0.488050 -0.109406 0.865931
v -29.335701 68.765594 62.504601
vn 0.012559 0.044751 0.998919
v -7.104701 62.641403 67.586800
vn 0.571592 0.277623 0.772145
v 25.622299 76.608002 59.076599
vn 0.258768 0.566187 0.782605
v 18.278299 96.293198 55.646202
vn 0.821235 0.235847 0.519567
v 53.503098 70.941193 35.757999
vn 0.778412 0.523312 0.346728
v 59.232700 88.895798 12.934601
vn 0.945418 0.324356 0.031293
v 64.297302 84.123993 -18.581600
vn 0.954721 -0.120749 -0.271897
v 65.794098 61.892807 -15.650600
vn 0.878351 -0.416708 -0.234211
v 50.752300 40.834595 -30.785000
vn 0.912432 -0.193242 -0.360728
v 47.586498 44.624603 -44.444801
vn 0.779268 -0.084122 0.621019
v 51.528900 41.856201 38.586201
vn 0.935223 -0.343615 0.085364
v 63.781300 37.579803 16.275400
vn -0.477533 -0.525632 0.704041
v -36.432102 47.433395 48.907600
vn -0.474912 -0.658115 0.584246
v -15.037701 26.655396 39.178398
vn 0.082422 -0.679329 0.729190
v 14.047100 13.261993 51.494400
vn 0.238372 -0.269850 0.932931
v 14.883900 29.547806 61.674400
vn 0.392537 -0.884247 0.253024
v 38.901497 -5.771400 27.823200
vn 0.769830 -0.609826 0.188347
v 54.094299 4.802200 18.333799
vn 0.646598 -0.743434 -0.170930
v 40.700901 8.228195 -10.751200
vn 0.574728 -0.798122 -0.180800
v 21.015900 -3.739403 -23.493000
vn 0.424129 -0.635441 -0.645236
v 15.348900 5.877998 -46.882000
vn 0.784994 -0.333205 -0.522263
v 33.303699 22.798599 -50.441601
vn -0.016545 -0.910864 0.412375
v 13.173300 -8.705200 0.636000
vn 0.158405 -0.986987 -0.027669
v 7.049299 -10.202003 -21.595200
vn -0.639030 -0.144903 0.755410
v -46.847500 40.554398 44.365002
vn -0.260237 -0.756534 0.599944
v -48.334702 19.160004 34.546799
vn -0.424476 -0.832787 0.355368
v -28.936699 8.744598 5.798401
vn -0.427860 -0.786188 0.445920
v -8.158900 7.257599 10.443399
vn -0.689652 -0.688866 -0.223257
v -42.330101 10.718796 -23.286400
vn -0.426004 -0.874789 -0.230793
v -26.044502 2.708801 -40.872601
vn -0.372200 -0.573578 -0.729709
v -13.735901 10.421204 -59.198200
vn -0.219240 -0.186508 -0.957679
v -18.012501 29.886993 -63.208401
vn -0.868618 -0.460645 -0.182507
v -61.363701 29.898407 -12.513600
vn -0.726277 0.032690 -0.686625
v -50.789902 44.785400 -38.666000
vn -0.990697 0.085209 0.106109
v -65.794098 48.487595 13.669600
vn -0.784163 -0.522157 0.335322
v -64.297302 26.256393 22.115799
vn 0.966523 -0.154372 -0.204947
v 18.690498 -121.386200 -5.822400
vn 0.045795 -0.625792 -0.778645
v 9.733099 -121.386200 -18.151001
vn 0.374837 0.141393 -0.916245
v -1.584701 -70.349396 -18.151001
vn 0.999787 -0.013600 -0.015498
v 6.215699 -74.752396 -5.822400
vn -0.670540 -0.690507 -0.271250
v -4.760301 -121.386200 -13.441800
vn -0.739494 0.266651 -0.618099
v -14.206301 -63.225201 -13.441800
vn -0.592166 -0.456992 0.663700
v -4.760301 -121.386200 1.797200
vn -0.750942 0.179723 0.635442
v -14.206301 -63.225201 1.797200
vn 0.366804 -0.745338 0.556710
v 9.733099 -121.386200 6.506399
vn 0.323665 -0.017883 0.946003
v -1.584701 -70.349396 6.506399
vn -0.191175 0.954866 0.227341
v 10.978700 22.032593 -5.822200
vn -0.035832 0.525607 -0.849973
v 6.620899 18.844604 -6.280200
vn -0.731980 0.352126 -0.583277
v -0.430501 13.686600 -6.105200
vn -0.939962 0.158098 0.302451
v -0.430501 13.686600 -5.539400
vn -0.216972 0.422707 0.879910
v 6.620899 18.844604 -5.364400
vn 0.324486 -0.047534 -0.944695
v 11.378500 -43.678802 -10.762000
vn 0.910377 -0.413596 -0.012342
v 14.503900 -48.081802 -5.822400
vn -0.562211 0.571325 -0.597919
v 6.321499 -36.554802 -8.875200
vn -0.596821 0.530066 0.602358
v 6.321499 -36.554802 -2.769400
vn 0.313043 -0.060464 0.947812
v 11.378500 -43.678802 -0.882600
vn 0.257562 -0.130572 -0.957399
v 26.359299 -22.096001 -10.762000
vn 0.985770 -0.167913 -0.007986
v 31.567499 -20.671799 -5.822200
vn -0.747564 0.098867 -0.656790
v 17.932301 -24.400597 -8.875200
vn -0.701048 0.253905 0.666381
v 17.932301 -24.400597 -2.769400
vn 0.271956 0.037600 0.961575
v 26.359299 -22.096001 -0.882600
vn 0.204109 0.152233 -0.967039
v 20.001099 0.553001 -11.849000
vn 0.877296 0.477793 -0.045447
v 24.359100 3.740997 -5.822400
vn -0.700737 -0.334328 -0.630232
v 12.949699 -4.605003 -9.547000
vn -0.741258 -0.223146 0.633042
v 12.949699 -4.605003 -2.097600
vn 0.137568 0.154501 0.978368
v 20.001099 0.553001 0.204400
# 90 vertices, 0 vertices normals


usemtl material_0
vt 0.000000 -0.085400
vt 0.180900 -0.197200
vt 0.319100 -0.111800
f 1/1/1 2/2/2 3/3/3
vt 0.319100 0.111800
f 1/1/1 3/3/3 4/4/4
vt 0.180900 0.197200
f 1/1/1 4/4/4 5/5/5
vt 0.000000 0.085400
f 1/1/1 5/5/5 6/6/6
vt 0.111800 0.378100
vt 0.177100 0.174100
f 4/7/4 7/8/7 8/4/8
vt 0.430900 0.180900
f 4/7/4 8/4/8 9/9/9
vt 0.397300 0.365700
f 4/7/4 9/9/9 10/10/10
vt 0.206000 0.487000
f 4/7/4 10/10/10 5/11/5
f 9/5/9 11/6/11 12/1/12
f 9/5/9 12/1/12 13/2/13
f 9/5/9 13/2/13 14/3/14
f 9/5/9 14/3/14 10/4/10
f 13/9/13 15/4/15 16/5/16
f 13/9/13 16/5/16 17/7/17
vt 0.197200 0.430900
f 13/9/13 17/7/17 18/12/18
vt 0.378100 0.319100
f 13/9/13 18/12/18 14/13/14
vt -0.319100 0.111800
vt -0.319100 -0.111800
vt -0.180900 -0.197200
f 17/14/17 19/15/19 20/16/20
f 17/14/17 20/16/20 1/1/1
f 17/14/17 1/1/1 6/6/6
vt -0.180900 0.197200
f 17/14/17 6/6/6 18/17/18
vt -0.111800 0.378100
vt -0.194100 0.172100
f 19/18/19 21/19/21 22/14/22
vt -0.430900 0.180900
f 19/18/19 22/14/22 23/20/23
vt -0.453600 0.254700
f 19/18/19 23/20/23 24/21/24
vt -0.258300 0.372000
f 19/18/19 24/21/24 20/22/20
f 23/2/23 25/1/25 26/6/26
f 23/2/23 26/6/26 27/5/27
f 23/2/23 27/5/27 28/4/28
f 23/2/23 28/4/28 24/3/24
f 27/20/27 29/14/29 30/17/30
f 27/20/27 30/17/30 3/18/3
vt -0.197200 0.430900
f 27/20/27 3/18/3 2/23/2
vt -0.378100 0.319100
f 27/20/27 2/23/2 28/24/28
f 7/5/7 31/6/31 32/1/32
f 7/5/7 32/1/32 33/2/33
f 7/5/7 33/2/33 34/3/34
f 7/5/7 34/3/34 8/4/8
f 31/6/31 30/17/30 29/14/29
f 31/6/31 29/14/29 35/15/35
f 31/6/31 35/15/35 36/16/36
f 31/6/31 36/16/36 32/1/32
f 25/1/25 37/16/37 38/15/38
f 25/1/25 38/15/38 39/14/39
f 25/1/25 39/14/39 40/17/40
f 25/1/25 40/17/40 26/6/26
vt 0.111800 -0.378100
vt 0.217900 -0.157600
f 39/25/39 41/26/41 42/3/42
vt 0.430900 -0.180900
f 39/25/39 42/3/42 36/27/36
vt 0.341100 -0.306700
f 39/25/39 36/27/36 35/28/35
vt 0.124200 -0.448600
f 39/25/39 35/28/35 40/29/40
vt 0.197200 -0.430900
f 33/2/33 43/25/43 44/30/44
vt 0.378100 -0.319100
f 33/2/33 44/30/44 45/31/45
f 33/2/33 45/31/45 46/27/46
f 33/2/33 46/27/46 34/3/34
f 43/4/43 42/3/42 41/2/41
f 43/4/43 41/2/41 47/1/47
f 43/4/43 47/1/47 48/6/48
f 43/4/43 48/6/48 44/5/44
vt -0.197200 -0.430900
vt -0.305200 -0.342300
vt -0.430900 -0.180900
f 37/32/37 49/33/49 50/34/50
f 37/32/37 50/34/50 51/15/51
vt -0.189100 -0.183500
f 37/32/37 51/15/51 52/35/52
vt -0.124900 -0.369500
f 37/32/37 52/35/52 38/36/38
f 51/15/51 53/14/53 54/17/54
f 51/15/51 54/17/54 48/6/48
f 51/15/51 48/6/48 47/1/47
f 51/15/51 47/1/47 52/16/52
f 45/14/45 55/15/55 56/16/56
f 45/14/45 56/16/56 12/1/12
f 45/14/45 12/1/12 11/6/11
f 45/14/45 11/6/11 46/17/46
vt 0.279500 -0.356600
vt 0.208900 -0.310700
f 55/31/55 54/37/54 53/38/53
f 55/31/55 53/38/53 57/2/57
f 55/31/55 57/2/57 58/3/58
vt 0.424900 -0.213000
f 55/31/55 58/3/58 56/39/56
f 49/15/49 22/14/22 21/17/21
f 49/15/49 21/17/21 59/6/59
f 49/15/49 59/6/59 60/1/60
f 49/15/49 60/1/60 50/16/50
f 59/6/59 16/5/16 15/4/15
f 59/6/59 15/4/15 58/3/58
f 59/6/59 58/3/58 57/2/57
f 59/6/59 57/2/57 60/1/60
f 5/5/5 10/7/10 14/18/14
f 5/5/5 14/18/14 18/17/18
f 5/5/5 18/17/18 6/6/6
vt -0.111800 -0.378100
f 20/16/20 24/40/24 28/25/28
f 20/16/20 28/25/28 2/2/2
f 20/16/20 2/2/2 1/1/1
f 3/18/3 30/17/30 31/6/31
f 3/18/3 31/6/31 7/5/7
f 3/18/3 7/5/7 4/7/4
f 27/5/27 26/6/26 40/17/40
f 27/5/27 40/17/40 35/18/35
f 27/5/27 35/18/35 29/7/29
f 36/16/36 42/40/42 43/25/43
f 36/16/36 43/25/43 33/2/33
f 36/16/36 33/2/33 32/1/32
f 39/25/39 38/40/38 52/16/52
f 39/25/39 52/16/52 47/1/47
f 39/25/39 47/1/47 41/2/41
f 48/6/48 54/17/54 55/18/55
f 48/6/48 55/18/55 45/7/45
f 48/6/48 45/7/45 44/5/44
f 51/40/51 50/16/50 60/1/60
f 51/40/51 60/1/60 57/2/57
f 51/40/51 57/2/57 53/25/53
f 58/40/58 15/25/15 13/2/13
f 58/40/58 13/2/13 12/1/12
f 58/40/58 12/1/12 56/16/56
f 59/6/59 21/17/21 19/18/19
f 59/6/59 19/18/19 17/7/17
f 59/6/59 17/7/17 16/5/16
f 22/25/22 49/40/49 37/16/37
f 22/25/22 37/16/37 25/1/25
f 22/25/22 25/1/25 23/2/23
f 9/5/9 8/7/8 34/18/34
f 9/5/9 34/18/34 46/17/46
f 9/5/9 46/17/46 11/6/11
vt 0.750000 0.000000
vt 0.950000 0.000000
vt 0.950000 1.000000
f 61/41/61 62/42/62 63/43/63
vt 0.750000 1.000000
f 61/41/61 63/43/63 64/44/64
vt 1.150000 0.000000
vt 1.150000 1.000000
f 62/42/62 65/45/65 66/46/66
f 62/42/62 66/46/66 63/43/63
vt 0.150000 0.000000
vt 0.350000 0.000000
vt 0.350000 1.000000
f 65/47/65 67/48/67 68/49/68
vt 0.150000 1.000000
f 65/47/65 68/49/68 66/50/66
vt 0.550000 0.000000
vt 0.550000 1.000000
f 67/48/67 69/51/69 70/52/70
f 67/48/67 70/52/70 68/49/68
f 69/51/69 61/41/61 64/44/64
f 69/51/69 64/44/64 70/52/70
vt 0.975500 0.654500
vt 0.793900 0.095500
vt 0.206100 0.095500
f 69/53/69 67/54/67 65/55/65
vt 0.024500 0.654500
f 69/53/69 65/55/65 62/56/62
vt 0.500000 1.000000
f 69/53/69 62/56/62 61/57/61
f 71/57/71 72/56/72 73/55/73
f 71/57/71 73/55/73 74/54/74
f 71/57/71 74/54/74 75/53/75
f 64/57/64 63/56/63 76/56/76
f 64/57/64 76/56/76 77/57/77
f 63/56/63 66/55/66 78/55/78
f 63/56/63 78/55/78 76/56/76
f 66/55/66 68/54/68 79/54/79
f 66/55/66 79/54/79 78/55/78
f 68/54/68 70/53/70 80/53/80
f 68/54/68 80/53/80 79/54/79
f 70/53/70 64/57/64 77/57/77
f 70/53/70 77/57/77 80/53/80
f 77/57/77 76/56/76 81/56/81
f 77/57/77 81/56/81 82/57/82
f 76/56/76 78/55/78 83/55/83
f 76/56/76 83/55/83 81/56/81
f 78/55/78 79/54/79 84/54/84
f 78/55/78 84/54/84 83/55/83
f 79/54/79 80/53/80 85/53/85
f 79/54/79 85/53/85 84/54/84
f 80/53/80 77/57/77 82/57/82
f 80/53/80 82/57/82 85/53/85
f 82/57/82 81/56/81 86/56/86
f 82/57/82 86/56/86 87/57/87
f 81/56/81 83/55/83 88/55/88
f 81/56/81 88/55/88 86/56/86
f 83/55/83 84/54/84 89/54/89
f 83/55/83 89/54/89 88/55/88
f 84/54/84 85/53/85 90/53/90
f 84/54/84 90/53/90 89/54/89
f 85/53/85 82/57/82 87/57/87
f 85/53/85 87/57/87 90/53/90
f 87/57/87 86/56/86 72/56/72
f 87/57/87 72/56/72 71/57/71
f 86/56/86 88/55/88 73/55/73
f 86/56/86 73/55/73 72/56/72
f 88/55/88 89/54/89 74/54/74
f 88/55/88 74/54/74 73/55/73
f 89/54/89 90/53/90 75/53/75
f 89/54/89 75/53/75 74/54/74
f 90/53/90 87/57/87 71/57/71
f 90/53/90 71/57/71 75/53/75
# 172 faces, 57 coords texture

# End of File
